<svg width="39" height="39" viewBox="0 0 39 39" fill="none" xmlns="http://www.w3.org/2000/svg">
<g clip-path="url(#clip0_1808_124)">
<path d="M38.5963 12.7208H35.1629C34.9399 12.7208 34.7592 12.5416 34.7592 12.3206V9.19331C34.7592 8.97226 34.5785 8.79309 34.3556 8.79309H30.7344C30.5114 8.79309 30.3307 8.61392 30.3307 8.39288V4.80258C30.3307 4.58153 30.15 4.40236 29.9271 4.40236H26.6532C26.4303 4.40236 26.2495 4.2232 26.2495 4.00215V0.400215C26.2495 0.179166 26.0688 0 25.8459 0H13.1095C12.8866 0 12.7059 0.179166 12.7059 0.400215V3.98586C12.7059 4.20691 12.5252 4.38607 12.3022 4.38607H8.70448C8.48153 4.38607 8.30082 4.56524 8.30082 4.78629V8.37659C8.30082 8.59764 8.12011 8.7768 7.89716 8.7768H4.27597C4.05301 8.7768 3.87231 8.95597 3.87231 9.17702V12.3089C3.87231 12.53 3.6916 12.7091 3.46865 12.7091H0.403659C0.180708 12.7091 0 12.8883 0 13.1094V25.8883C0 26.1094 0.180708 26.2885 0.403659 26.2885H3.46865C3.6916 26.2885 3.87231 26.4677 3.87231 26.6887V30.1906C3.87231 30.4117 4.05301 30.5908 4.27597 30.5908H7.89716C8.12011 30.5908 8.30082 30.77 8.30082 30.991V34.5813C8.30082 34.8024 8.48153 34.9816 8.70448 34.9816H12.2905C12.5134 34.9816 12.6941 35.1607 12.6941 35.3818V38.8092C12.6941 38.9139 12.7786 38.9977 12.8842 38.9977H25.8435C26.0665 38.9977 26.2472 38.8185 26.2472 38.5975V35.4074C26.2472 35.1863 26.4279 35.0072 26.6509 35.0072H29.8825C30.1054 35.0072 30.2861 34.828 30.2861 34.6069V31.0166C30.2861 30.7956 30.4668 30.6164 30.6898 30.6164H34.311C34.5339 30.6164 34.7146 30.4373 34.7146 30.2162V26.6934C34.7146 26.4723 34.8954 26.2932 35.1183 26.2932H38.5963C38.8193 26.2932 39 26.114 39 25.893V13.1187C39 12.8976 38.8193 12.7185 38.5963 12.7185V12.7208ZM28.986 29.6857H25.3648C25.1418 29.6857 24.9611 29.8649 24.9611 30.0859V33.2783C24.9611 33.4994 24.7804 33.6785 24.5575 33.6785H14.0741C13.8511 33.6785 13.6704 33.4994 13.6704 33.2783V30.0999C13.6704 29.8788 13.4897 29.6997 13.2668 29.6997H9.64557C9.42261 29.6997 9.24191 29.5205 9.24191 29.2994V25.7091C9.24191 25.4881 9.0612 25.3089 8.83825 25.3089H5.71459C5.49164 25.3089 5.31093 25.1298 5.31093 24.9087V14.4985C5.31093 14.2774 5.49164 14.0983 5.71459 14.0983H8.79366C9.01661 14.0983 9.19732 13.9191 9.19732 13.698V10.1077C9.19732 9.8867 9.37802 9.70753 9.60098 9.70753H13.2222C13.4451 9.70753 13.6258 9.52837 13.6258 9.30732V5.71702C13.6258 5.49597 13.8065 5.31681 14.0295 5.31681H24.5575C24.7804 5.31681 24.9611 5.49597 24.9611 5.71702V9.2794C24.9611 9.50045 25.1418 9.67961 25.3648 9.67961H28.986C29.2089 9.67961 29.3896 9.85878 29.3896 10.0798V13.6701C29.3896 13.8912 29.5703 14.0703 29.7933 14.0703H33.2854C33.5084 14.0703 33.6891 14.2495 33.6891 14.4706V24.8924C33.6891 25.1135 33.5084 25.2926 33.2854 25.2926H29.7933C29.5703 25.2926 29.3896 25.4718 29.3896 25.6929V29.2832C29.3896 29.5042 29.2089 29.6834 28.986 29.6834V29.6857Z" fill="#FAD8D1"/>
</g>
<defs>
<clipPath id="clip0_1808_124">
<rect width="39" height="39" fill="white"/>
</clipPath>
</defs>
</svg>
