<svg width="108" height="28" viewBox="0 0 108 28" fill="none" xmlns="http://www.w3.org/2000/svg">
<g clip-path="url(#clip0_1697_341)">
<path d="M14.7543 24.7976V21.4774C14.7543 21.41 14.6984 21.3594 14.6368 21.3594H13.2437C13.1765 21.3594 13.1262 21.3032 13.1262 21.2414V19.8426C13.1262 19.7751 13.0702 19.7246 13.0087 19.7246H3.45802C3.39089 19.7246 3.34053 19.6684 3.34053 19.6066V18.219C3.34053 18.1515 3.28458 18.101 3.22304 18.101H1.82988C1.76274 18.101 1.71239 18.0448 1.71239 17.983V16.5954C1.71239 16.5279 1.65644 16.4774 1.59489 16.4774H0.207338C0.140199 16.4774 0.0898438 16.4212 0.0898438 16.3594V13.3257C0.0898438 13.2583 0.145794 13.2077 0.207338 13.2077H1.5893C1.65644 13.2077 1.70679 13.1515 1.70679 13.0897V11.41C1.70679 11.3426 1.76274 11.292 1.82429 11.292H3.75456C3.8217 11.292 3.87205 11.3482 3.87205 11.41V14.7302C3.87205 14.7976 3.928 14.8482 3.98955 14.8482H4.83999C4.90713 14.8482 4.95748 14.9044 4.95748 14.9661V16.365C4.95748 16.4324 5.01343 16.483 5.07498 16.483H14.6144C14.6816 16.483 14.7319 16.5392 14.7319 16.601V17.9886C14.7319 18.056 14.7879 18.1066 14.8494 18.1066H16.2426C16.3097 18.1066 16.3601 18.1628 16.3601 18.2246V19.6122C16.3601 19.6796 16.416 19.7302 16.4776 19.7302H17.8707C17.9378 19.7302 17.9882 19.7864 17.9882 19.8482V22.8819C17.9882 22.9493 17.9323 22.9999 17.8707 22.9999H16.4776C16.4104 22.9999 16.3601 23.056 16.3601 23.1178V24.7976C16.3601 24.865 16.3041 24.9156 16.2426 24.9156H14.8494C14.7823 24.9156 14.7319 24.8594 14.7319 24.7976H14.7543Z" fill="#FAD8D1"/>
<path d="M16.2646 25.0055H14.8715C14.7596 25.0055 14.6645 24.9156 14.6645 24.7977V21.4774C14.6645 21.4774 14.6477 21.4437 14.6309 21.4437H13.2377C13.1258 21.4437 13.0307 21.3538 13.0307 21.2359V19.837C13.0307 19.837 13.0139 19.8033 12.9972 19.8033H3.4577C3.3458 19.8033 3.25069 19.7134 3.25069 19.5954V18.2078C3.25069 18.2078 3.2339 18.1741 3.21712 18.1741H1.82397C1.71207 18.1741 1.61695 18.0842 1.61695 17.9662V16.5786C1.61695 16.5786 1.60017 16.5449 1.58338 16.5449H0.207014C0.0951148 16.5449 0 16.455 0 16.337V13.3033C0 13.1909 0.0895198 13.0954 0.207014 13.0954H1.58898C1.58898 13.0954 1.62255 13.0786 1.62255 13.0617V11.3819C1.62255 11.2696 1.71207 11.1741 1.82956 11.1741H3.75983C3.87173 11.1741 3.96684 11.264 3.96684 11.3819V14.7022C3.96684 14.7022 3.98363 14.7359 4.00041 14.7359H4.85085C4.96275 14.7359 5.05787 14.8258 5.05787 14.9437V16.3426C5.05787 16.3426 5.07465 16.3763 5.09144 16.3763H14.6309C14.7428 16.3763 14.8379 16.4662 14.8379 16.5842V17.9718C14.8379 17.9718 14.8547 18.0055 14.8715 18.0055H16.2646C16.3765 18.0055 16.4716 18.0954 16.4716 18.2134V19.601C16.4716 19.601 16.4884 19.6347 16.5052 19.6347H17.8984C18.0103 19.6347 18.1054 19.7246 18.1054 19.8426V22.8763C18.1054 22.9887 18.0159 23.0842 17.8984 23.0842H16.5052C16.5052 23.0842 16.4716 23.101 16.4716 23.1179V24.7977C16.4716 24.91 16.3821 25.0055 16.2646 25.0055ZM0.207014 13.2696C0.207014 13.2696 0.173445 13.2864 0.173445 13.3033V16.337C0.173445 16.337 0.19023 16.3707 0.207014 16.3707H1.58898C1.70088 16.3707 1.79599 16.4606 1.79599 16.5786V17.9662C1.79599 17.9662 1.81278 17.9999 1.82956 17.9999H3.22271C3.33461 17.9999 3.42973 18.0898 3.42973 18.2078V19.5954C3.42973 19.5954 3.44651 19.6291 3.4633 19.6291H13.0027C13.1146 19.6291 13.2098 19.719 13.2098 19.837V21.2359C13.2098 21.2359 13.2265 21.2696 13.2433 21.2696H14.6365C14.7484 21.2696 14.8435 21.3595 14.8435 21.4774V24.7977C14.8435 24.7977 14.8603 24.8314 14.8771 24.8314H16.2702C16.2702 24.8314 16.3038 24.8145 16.3038 24.7977V23.1179C16.3038 23.0055 16.3933 22.91 16.5108 22.91H17.904C17.904 22.91 17.9375 22.8932 17.9375 22.8763V19.8426C17.9375 19.8426 17.9207 19.8089 17.904 19.8089H16.5108C16.3989 19.8089 16.3038 19.719 16.3038 19.601V18.2134C16.3038 18.2134 16.287 18.1797 16.2702 18.1797H14.8771C14.7652 18.1797 14.6701 18.0898 14.6701 17.9718V16.5842C14.6701 16.5842 14.6533 16.5505 14.6365 16.5505H5.09144C4.97954 16.5505 4.88442 16.4606 4.88442 16.3426V14.9437C4.88442 14.9437 4.86764 14.91 4.85085 14.91H4.00041C3.88851 14.91 3.7934 14.8201 3.7934 14.7022V11.3819C3.7934 11.3819 3.77662 11.3482 3.75983 11.3482H1.82956C1.82956 11.3482 1.79599 11.3651 1.79599 11.3819V13.0617C1.79599 13.1741 1.70647 13.2696 1.58898 13.2696H0.207014Z" fill="#FAD8D1"/>
<path d="M3.70381 27.5449V26.1461C3.70381 26.0787 3.64786 26.0281 3.58632 26.0281H2.19317C2.12603 26.0281 2.07567 25.9719 2.07567 25.9101V24.5112C2.07567 24.4438 2.01972 24.3933 1.95818 24.3933H0.57062C0.50348 24.3933 0.453125 24.3371 0.453125 24.2753V21.2416C0.453125 21.1742 0.509075 21.1236 0.57062 21.1236H1.95258C2.01972 21.1236 2.07008 21.0674 2.07008 21.0056V19.6067C2.07008 19.5393 2.12603 19.4888 2.18757 19.4888H3.58072C3.64786 19.4888 3.69822 19.545 3.69822 19.6067V24.2809C3.69822 24.3483 3.75417 24.3989 3.81571 24.3989H5.20886C5.276 24.3989 5.32636 24.4551 5.32636 24.5169V25.9157C5.32636 25.9832 5.38231 26.0337 5.44385 26.0337H13.3552C13.4223 26.0337 13.4727 26.0899 13.4727 26.1517V27.5506C13.4727 27.618 13.4167 27.6685 13.3552 27.6685H3.8269C3.75976 27.6685 3.70941 27.6124 3.70941 27.5506L3.70381 27.5449Z" fill="#FAD8D1"/>
<path d="M13.366 27.7473H3.82658C3.71468 27.7473 3.61956 27.6574 3.61956 27.5394V26.1405C3.61956 26.1405 3.60278 26.1068 3.58599 26.1068H2.19284C2.08094 26.1068 1.98583 26.0169 1.98583 25.8989V24.5001C1.98583 24.5001 1.96904 24.4664 1.95226 24.4664H0.570296C0.458396 24.4664 0.363281 24.3765 0.363281 24.2585V21.2248C0.363281 21.1124 0.452801 21.0169 0.570296 21.0169H1.95226C1.95226 21.0169 1.98583 21.0001 1.98583 20.9832V19.5843C1.98583 19.472 2.07535 19.3765 2.19284 19.3765H3.58599C3.69789 19.3765 3.79301 19.4664 3.79301 19.5843V24.2585C3.79301 24.2585 3.80979 24.2922 3.82658 24.2922H5.21973C5.33163 24.2922 5.42674 24.3821 5.42674 24.5001V25.8989C5.42674 25.8989 5.44353 25.9326 5.46031 25.9326H13.3716C13.4835 25.9326 13.5786 26.0225 13.5786 26.1405V27.5394C13.5786 27.6517 13.4891 27.7473 13.3716 27.7473H13.366ZM0.570296 21.1967C0.570296 21.1967 0.536726 21.2135 0.536726 21.2304V24.2641C0.536726 24.2641 0.553511 24.2978 0.570296 24.2978H1.95226C2.06416 24.2978 2.15927 24.3877 2.15927 24.5057V25.9046C2.15927 25.9046 2.17606 25.9383 2.19284 25.9383H3.58599C3.69789 25.9383 3.79301 26.0282 3.79301 26.1461V27.545C3.79301 27.545 3.80979 27.5787 3.82658 27.5787H13.366C13.366 27.5787 13.3996 27.5619 13.3996 27.545V26.1461C13.3996 26.1461 13.3828 26.1124 13.366 26.1124H5.45472C5.34282 26.1124 5.2477 26.0225 5.2477 25.9046V24.5057C5.2477 24.5057 5.23092 24.472 5.21413 24.472H3.82098C3.70908 24.472 3.61397 24.3821 3.61397 24.2641V19.5899C3.61397 19.5899 3.59718 19.5562 3.5804 19.5562H2.18725C2.18725 19.5562 2.15368 19.5731 2.15368 19.5899V20.9888C2.15368 21.1012 2.06416 21.1967 1.94666 21.1967H0.570296Z" fill="#FAD8D1"/>
<path d="M16.4776 0.0842285H3.67065C3.60351 0.0842285 3.55316 0.140408 3.55316 0.202206V1.60108C3.55316 1.6685 3.49721 1.71906 3.43566 1.71906H2.04251C1.97537 1.71906 1.92502 1.77524 1.92502 1.83704V3.23591C1.92502 3.30333 1.86907 3.35389 1.80752 3.35389H0.41437C0.34723 3.35389 0.296875 3.41007 0.296875 3.47187V8.13479C0.296875 8.20221 0.352825 8.25277 0.41437 8.25277H1.79633C1.86347 8.25277 1.91383 8.30895 1.91383 8.37074V9.76962C1.91383 9.83704 1.96978 9.8876 2.03132 9.8876H3.42447C3.49161 9.8876 3.54197 9.94378 3.54197 10.0056V11.4045C3.54197 11.4719 3.59792 11.5224 3.65946 11.5224H11.5708C11.6379 11.5224 11.6883 11.4663 11.6883 11.4045V10.0056C11.6883 9.93816 11.7442 9.8876 11.8058 9.8876H13.1989C13.2661 9.8876 13.3164 9.83142 13.3164 9.76962V8.37074C13.3164 8.30333 13.3724 8.25277 13.4339 8.25277H14.8271C14.8942 8.25277 14.9445 8.19659 14.9445 8.13479V3.4831C14.9445 3.41569 14.8886 3.36513 14.8271 3.36513H13.4339C13.3668 3.36513 13.3164 3.30895 13.3164 3.24715V1.84827C13.3164 1.78086 13.3724 1.7303 13.4339 1.7303H16.4552C16.5223 1.7303 16.5727 1.67412 16.5727 1.61232V0.207824C16.5727 0.140408 16.5167 0.0898465 16.4552 0.0898465L16.4776 0.0842285ZM11.6995 8.14603C11.6995 8.21344 11.6435 8.264 11.582 8.264H10.2C10.1329 8.264 10.0825 8.32018 10.0825 8.38198V9.78086C10.0825 9.84827 10.0266 9.89884 9.96501 9.89884H5.30998C5.24284 9.89884 5.19249 9.84266 5.19249 9.78086V8.38198C5.19249 8.31457 5.13654 8.264 5.07499 8.264H3.68184C3.6147 8.264 3.56435 8.20782 3.56435 8.14603V3.4831C3.56435 3.41569 3.6203 3.36513 3.68184 3.36513H5.07499C5.14213 3.36513 5.19249 3.30895 5.19249 3.24715V1.84827C5.19249 1.78086 5.24844 1.7303 5.30998 1.7303H9.96501C10.0321 1.7303 10.0825 1.78648 10.0825 1.84827V3.24715C10.0825 3.31457 10.1385 3.36513 10.2 3.36513H11.582C11.6491 3.36513 11.6995 3.42131 11.6995 3.4831V8.14603Z" fill="#FAD8D1"/>
<path d="M11.5816 11.6348H3.67033C3.55843 11.6348 3.46331 11.5449 3.46331 11.427V10.0281C3.46331 10.0281 3.44653 9.99438 3.42974 9.99438H2.03659C1.92469 9.99438 1.82958 9.90449 1.82958 9.78652V8.38764C1.82958 8.38764 1.81279 8.35393 1.79601 8.35393H0.414046C0.302146 8.35393 0.207031 8.26404 0.207031 8.14607V3.48315C0.207031 3.37079 0.296551 3.27528 0.414046 3.27528H1.79601C1.79601 3.27528 1.82958 3.25843 1.82958 3.24157V1.8427C1.82958 1.73034 1.9191 1.63483 2.03659 1.63483H3.42974C3.42974 1.63483 3.46331 1.61798 3.46331 1.60112V0.207865C3.46331 0.0955056 3.55843 0 3.67033 0H16.4772C16.5891 0 16.6843 0.0898876 16.6843 0.207865V1.60674C16.6843 1.7191 16.5947 1.81461 16.4772 1.81461H13.456C13.456 1.81461 13.4224 1.83146 13.4224 1.84831V3.24719C13.4224 3.24719 13.4392 3.2809 13.456 3.2809H14.8491C14.961 3.2809 15.0561 3.37079 15.0561 3.48876V8.15169C15.0561 8.26404 14.9666 8.35955 14.8491 8.35955H13.456C13.456 8.35955 13.4224 8.3764 13.4224 8.39326V9.79213C13.4224 9.90449 13.3329 10 13.2154 10H11.8222C11.8222 10 11.7887 10.0169 11.7887 10.0337V11.4326C11.7887 11.5449 11.6991 11.6404 11.5816 11.6404V11.6348ZM0.414046 3.44944C0.414046 3.44944 0.380476 3.46629 0.380476 3.48315V8.14607C0.380476 8.14607 0.397261 8.17978 0.414046 8.17978H1.79601C1.90791 8.17978 2.00302 8.26966 2.00302 8.38764V9.78652C2.00302 9.78652 2.01981 9.82022 2.03659 9.82022H3.42974C3.54164 9.82022 3.63676 9.91011 3.63676 10.0281V11.427C3.63676 11.427 3.65354 11.4607 3.67033 11.4607H11.5816C11.5816 11.4607 11.6152 11.4438 11.6152 11.427V10.0281C11.6152 9.91573 11.7047 9.82022 11.8222 9.82022H13.2154C13.2154 9.82022 13.2489 9.80337 13.2489 9.78652V8.38764C13.2489 8.27528 13.3385 8.17978 13.456 8.17978H14.8491C14.8491 8.17978 14.8827 8.16292 14.8827 8.14607V3.48315C14.8827 3.48315 14.8659 3.44944 14.8491 3.44944H13.456C13.3441 3.44944 13.2489 3.35955 13.2489 3.24157V1.8427C13.2489 1.73034 13.3385 1.63483 13.456 1.63483H16.4772C16.4772 1.63483 16.5108 1.61798 16.5108 1.60112V0.207865C16.5108 0.207865 16.494 0.174157 16.4772 0.174157H3.67033C3.67033 0.174157 3.63676 0.191011 3.63676 0.207865V1.60674C3.63676 1.7191 3.54724 1.81461 3.42974 1.81461H2.03659C2.03659 1.81461 2.00302 1.83146 2.00302 1.84831V3.24719C2.00302 3.35955 1.9135 3.45506 1.79601 3.45506H0.414046V3.44944ZM9.95909 9.99438H5.30406C5.19216 9.99438 5.09705 9.90449 5.09705 9.78652V8.38764C5.09705 8.38764 5.08026 8.35393 5.06348 8.35393H3.67033C3.55843 8.35393 3.46331 8.26404 3.46331 8.14607V3.48315C3.46331 3.37079 3.55283 3.27528 3.67033 3.27528H5.06348C5.06348 3.27528 5.09705 3.25843 5.09705 3.24157V1.8427C5.09705 1.73034 5.18657 1.63483 5.30406 1.63483H9.95909C10.071 1.63483 10.1661 1.72472 10.1661 1.8427V3.24157C10.1661 3.24157 10.1829 3.27528 10.1997 3.27528H11.5816C11.6935 3.27528 11.7887 3.36517 11.7887 3.48315V8.14607C11.7887 8.25843 11.6991 8.35393 11.5816 8.35393H10.1997C10.1997 8.35393 10.1661 8.37079 10.1661 8.38764V9.78652C10.1661 9.89888 10.0766 9.99438 9.95909 9.99438ZM3.67033 3.44944C3.67033 3.44944 3.63676 3.46629 3.63676 3.48315V8.14607C3.63676 8.14607 3.65354 8.17978 3.67033 8.17978H5.06348C5.17538 8.17978 5.27049 8.26966 5.27049 8.38764V9.78652C5.27049 9.78652 5.28728 9.82022 5.30406 9.82022H9.95909C9.95909 9.82022 9.99266 9.80337 9.99266 9.78652V8.38764C9.99266 8.27528 10.0822 8.17978 10.1997 8.17978H11.5816C11.5816 8.17978 11.6152 8.16292 11.6152 8.14607V3.48315C11.6152 3.48315 11.5984 3.44944 11.5816 3.44944H10.1997C10.0878 3.44944 9.99266 3.35955 9.99266 3.24157V1.8427C9.99266 1.8427 9.97587 1.80899 9.95909 1.80899H5.30406C5.30406 1.80899 5.27049 1.82584 5.27049 1.8427V3.24157C5.27049 3.35393 5.18097 3.44944 5.06348 3.44944H3.67033Z" fill="#FAD8D1"/>
<path d="M14.8502 24.6348H13.4515C13.3866 24.6348 13.334 24.6876 13.334 24.7527V26.1572C13.334 26.2224 13.3866 26.2752 13.4515 26.2752H14.8502C14.9151 26.2752 14.9677 26.2224 14.9677 26.1572V24.7527C14.9677 24.6876 14.9151 24.6348 14.8502 24.6348Z" fill="#FAD8D1"/>
<path d="M14.8443 26.3595H13.4512C13.3393 26.3595 13.2441 26.2696 13.2441 26.1517V24.7528C13.2441 24.6404 13.3337 24.5449 13.4512 24.5449H14.8443C14.9562 24.5449 15.0513 24.6348 15.0513 24.7528V26.1517C15.0513 26.264 14.9618 26.3595 14.8443 26.3595ZM13.4512 24.7247C13.4512 24.7247 13.4176 24.7416 13.4176 24.7584V26.1573C13.4176 26.1573 13.4344 26.191 13.4512 26.191H14.8443C14.8443 26.191 14.8779 26.1741 14.8779 26.1573V24.7584C14.8779 24.7584 14.8611 24.7247 14.8443 24.7247H13.4512Z" fill="#FAD8D1"/>
<path d="M22.5876 18.0898C22.4534 18.0898 22.347 17.9831 22.347 17.8483V16.7022C22.347 16.5674 22.2407 16.4606 22.1065 16.4606H20.9539C20.8196 16.4606 20.7133 16.3539 20.7133 16.2191V15.0618C20.7133 14.9269 20.607 14.8202 20.4727 14.8202H19.3202C19.1859 14.8202 19.0796 14.7134 19.0796 14.5786V11.7809C19.0796 11.646 18.9733 11.5393 18.839 11.5393H17.6976C17.5633 11.5393 17.457 11.4325 17.457 11.2977V6.87075C17.457 6.73591 17.5633 6.62917 17.6976 6.62917H18.839C18.9733 6.62917 19.0796 6.52243 19.0796 6.3876V3.58985C19.0796 3.45501 19.1859 3.34827 19.3202 3.34827H20.4727C20.607 3.34827 20.7133 3.45501 20.7133 3.58985V4.74715C20.7133 4.88198 20.8196 4.98872 20.9539 4.98872H30.2584C30.3926 4.98872 30.4989 4.88198 30.4989 4.74715V3.58985C30.4989 3.45501 30.3926 3.34827 30.2584 3.34827H29.1058C28.9715 3.34827 28.8652 3.24153 28.8652 3.1067V1.9494C28.8652 1.81457 28.7589 1.70782 28.6246 1.70782H22.5876C22.4534 1.70782 22.347 1.60108 22.347 1.46625V0.325802C22.347 0.19097 22.4534 0.0842285 22.5876 0.0842285H30.2584C30.3926 0.0842285 30.4989 0.19097 30.4989 0.325802V1.4831C30.4989 1.61794 30.6052 1.72468 30.7395 1.72468H31.8921C32.0264 1.72468 32.1327 1.83142 32.1327 1.96625V3.12355C32.1327 3.25839 32.239 3.36513 32.3733 3.36513H33.5258C33.6601 3.36513 33.7664 3.47187 33.7664 3.6067V6.40445C33.7664 6.53928 33.6601 6.64603 33.5258 6.64603H20.9595C20.8252 6.64603 20.7189 6.75277 20.7189 6.8876V11.3146C20.7189 11.4494 20.8252 11.5561 20.9595 11.5561H22.1121C22.2463 11.5561 22.3526 11.6629 22.3526 11.7977V14.5955C22.3526 14.7303 22.4589 14.837 22.5932 14.837H23.7458C23.8801 14.837 23.9864 14.9438 23.9864 15.0786V16.2359C23.9864 16.3707 24.0927 16.4775 24.227 16.4775H30.264C30.3982 16.4775 30.5045 16.5842 30.5045 16.7191V17.8651C30.5045 18 30.3982 18.1067 30.264 18.1067H22.5932L22.5876 18.0898ZM20.9595 3.36513C20.8252 3.36513 20.7189 3.25839 20.7189 3.12355V1.96625C20.7189 1.83142 20.8252 1.72468 20.9595 1.72468H22.1121C22.2463 1.72468 22.3526 1.83142 22.3526 1.96625V3.12355C22.3526 3.25839 22.2463 3.36513 22.1121 3.36513H20.9595ZM30.7395 16.4663C30.6052 16.4663 30.4989 16.3595 30.4989 16.2247V15.0674C30.4989 14.9325 30.6052 14.8258 30.7395 14.8258H31.8921C32.0264 14.8258 32.1327 14.9325 32.1327 15.0674V16.2247C32.1327 16.3595 32.0264 16.4663 31.8921 16.4663H30.7395ZM32.3733 14.8258C32.239 14.8258 32.1327 14.7191 32.1327 14.5842V13.4269C32.1327 13.2921 32.239 13.1854 32.3733 13.1854H33.5258C33.6601 13.1854 33.7664 13.2921 33.7664 13.4269V14.5842C33.7664 14.7191 33.6601 14.8258 33.5258 14.8258H32.3733Z" fill="#FAD8D1"/>
<path d="M30.2583 18.1798H22.5876C22.4085 18.1798 22.2631 18.0337 22.2631 17.8539V16.7079C22.2631 16.6236 22.1959 16.5506 22.1064 16.5506H20.9538C20.7748 16.5506 20.6293 16.4045 20.6293 16.2247V15.0674C20.6293 14.9831 20.5622 14.9101 20.4727 14.9101H19.3201C19.1411 14.9101 18.9956 14.764 18.9956 14.5843V11.7865C18.9956 11.7022 18.9285 11.6292 18.8389 11.6292H17.6976C17.5185 11.6292 17.373 11.4831 17.373 11.3034V6.8764C17.373 6.69663 17.5185 6.55056 17.6976 6.55056H18.8389C18.9229 6.55056 18.9956 6.48315 18.9956 6.39326V3.59551C18.9956 3.41573 19.1411 3.26966 19.3201 3.26966H20.4727C20.6517 3.26966 20.7972 3.41573 20.7972 3.59551V4.75281C20.7972 4.83708 20.8643 4.91011 20.9538 4.91011H30.2583C30.3422 4.91011 30.415 4.8427 30.415 4.75281V3.59551C30.415 3.51124 30.3478 3.4382 30.2583 3.4382H29.1057C28.9267 3.4382 28.7812 3.29213 28.7812 3.11236V1.95506C28.7812 1.87079 28.7141 1.79775 28.6246 1.79775H22.5876C22.4085 1.79775 22.2631 1.65169 22.2631 1.47191V0.325843C22.2631 0.146067 22.4085 0 22.5876 0H30.2583C30.4373 0 30.5828 0.146067 30.5828 0.325843V1.48315C30.5828 1.56742 30.6499 1.64045 30.7395 1.64045H31.892C32.0711 1.64045 32.2165 1.78652 32.2165 1.96629V3.1236C32.2165 3.20786 32.2837 3.2809 32.3732 3.2809H33.5258C33.7048 3.2809 33.8503 3.42697 33.8503 3.60674V6.40449C33.8503 6.58427 33.7048 6.73034 33.5258 6.73034H20.9594C20.8755 6.73034 20.8028 6.79775 20.8028 6.88764V11.3146C20.8028 11.3989 20.8699 11.4719 20.9594 11.4719H22.112C22.291 11.4719 22.4365 11.618 22.4365 11.7978V14.5955C22.4365 14.6798 22.5036 14.7528 22.5932 14.7528H23.7457C23.9248 14.7528 24.0702 14.8989 24.0702 15.0787V16.236C24.0702 16.3202 24.1374 16.3933 24.2269 16.3933H30.2639C30.4429 16.3933 30.5884 16.5393 30.5884 16.7191V17.8652C30.5884 18.0449 30.4429 18.191 30.2639 18.191L30.2583 18.1798ZM17.7032 6.72472C17.6192 6.72472 17.5465 6.79213 17.5465 6.88202V11.309C17.5465 11.3933 17.6136 11.4663 17.7032 11.4663H18.8445C19.0236 11.4663 19.169 11.6124 19.169 11.7921V14.5899C19.169 14.6742 19.2362 14.7472 19.3257 14.7472H20.4783C20.6573 14.7472 20.8028 14.8933 20.8028 15.073V16.2303C20.8028 16.3146 20.8699 16.3876 20.9594 16.3876H22.112C22.291 16.3876 22.4365 16.5337 22.4365 16.7135V17.8596C22.4365 17.9438 22.5036 18.0169 22.5932 18.0169H30.2639C30.3478 18.0169 30.4206 17.9494 30.4206 17.8596V16.7135C30.4206 16.6292 30.3534 16.5562 30.2639 16.5562H24.2269C24.0479 16.5562 23.9024 16.4101 23.9024 16.2303V15.073C23.9024 14.9888 23.8353 14.9157 23.7457 14.9157H22.5932C22.4141 14.9157 22.2687 14.7697 22.2687 14.5899V11.7921C22.2687 11.7079 22.2015 11.6348 22.112 11.6348H20.9594C20.7804 11.6348 20.6349 11.4888 20.6349 11.309V6.88202C20.6349 6.70225 20.7804 6.55618 20.9594 6.55618H33.5258C33.6097 6.55618 33.6824 6.48876 33.6824 6.39888V3.60112C33.6824 3.51685 33.6153 3.44382 33.5258 3.44382H32.3732C32.1942 3.44382 32.0487 3.29775 32.0487 3.11798V1.96067C32.0487 1.8764 31.9816 1.80337 31.892 1.80337H30.7395C30.5604 1.80337 30.415 1.6573 30.415 1.47753V0.325843C30.415 0.241573 30.3478 0.168539 30.2583 0.168539H22.5876C22.5036 0.168539 22.4309 0.235955 22.4309 0.325843V1.48315C22.4309 1.56742 22.4981 1.64045 22.5876 1.64045H28.6246C28.8036 1.64045 28.9491 1.78652 28.9491 1.96629V3.1236C28.9491 3.20786 29.0162 3.2809 29.1057 3.2809H30.2583C30.4373 3.2809 30.5828 3.42697 30.5828 3.60674V4.76404C30.5828 4.94382 30.4373 5.08989 30.2583 5.08989H20.9538C20.7748 5.08989 20.6293 4.94382 20.6293 4.76404V3.60674C20.6293 3.52247 20.5622 3.44944 20.4727 3.44944H19.3201C19.2362 3.44944 19.1634 3.51685 19.1634 3.60674V6.40449C19.1634 6.58427 19.018 6.73034 18.8389 6.73034H17.6976L17.7032 6.72472ZM31.892 16.5506H30.7395C30.5604 16.5506 30.415 16.4045 30.415 16.2247V15.0674C30.415 14.8876 30.5604 14.7416 30.7395 14.7416H31.892C32.0711 14.7416 32.2165 14.8876 32.2165 15.0674V16.2247C32.2165 16.4045 32.0711 16.5506 31.892 16.5506ZM30.7395 14.9101C30.6555 14.9101 30.5828 14.9775 30.5828 15.0674V16.2247C30.5828 16.309 30.6499 16.382 30.7395 16.382H31.892C31.976 16.382 32.0487 16.3146 32.0487 16.2247V15.0674C32.0487 14.9831 31.9816 14.9101 31.892 14.9101H30.7395ZM33.5258 14.9101H32.3732C32.1942 14.9101 32.0487 14.764 32.0487 14.5843V13.427C32.0487 13.2472 32.1942 13.1011 32.3732 13.1011H33.5258C33.7048 13.1011 33.8503 13.2472 33.8503 13.427V14.5843C33.8503 14.764 33.7048 14.9101 33.5258 14.9101ZM32.3732 13.2697C32.2893 13.2697 32.2165 13.3371 32.2165 13.427V14.5843C32.2165 14.6685 32.2837 14.7416 32.3732 14.7416H33.5258C33.6097 14.7416 33.6824 14.6742 33.6824 14.5843V13.427C33.6824 13.3427 33.6153 13.2697 33.5258 13.2697H32.3732ZM22.112 3.44944H20.9594C20.7804 3.44944 20.6349 3.30337 20.6349 3.1236V1.96629C20.6349 1.78652 20.7804 1.64045 20.9594 1.64045H22.112C22.291 1.64045 22.4365 1.78652 22.4365 1.96629V3.1236C22.4365 3.30337 22.291 3.44944 22.112 3.44944ZM20.9594 1.80899C20.8755 1.80899 20.8028 1.8764 20.8028 1.96629V3.1236C20.8028 3.20786 20.8699 3.2809 20.9594 3.2809H22.112C22.1959 3.2809 22.2687 3.21348 22.2687 3.1236V1.96629C22.2687 1.88202 22.2015 1.80899 22.112 1.80899H20.9594Z" fill="#FAD8D1"/>
<path d="M40.4681 0.0842285C40.6024 0.0842285 40.7087 0.19097 40.7087 0.325802V1.4831C40.7087 1.61794 40.815 1.72468 40.9492 1.72468H42.1018C42.2361 1.72468 42.3424 1.83142 42.3424 1.96625V3.12355C42.3424 3.25839 42.2361 3.36513 42.1018 3.36513H40.9492C40.815 3.36513 40.7087 3.47187 40.7087 3.6067V16.2247C40.7087 16.3595 40.815 16.4663 40.9492 16.4663H42.1018C42.2361 16.4663 42.3424 16.573 42.3424 16.7078V17.8539C42.3424 17.9887 42.2361 18.0955 42.1018 18.0955H36.2718C36.1376 18.0955 36.0312 17.9887 36.0312 17.8539V16.7078C36.0312 16.573 36.1376 16.4663 36.2718 16.4663H37.4132C37.5475 16.4663 37.6538 16.3595 37.6538 16.2247V3.60108C37.6538 3.46625 37.5475 3.35951 37.4132 3.35951H36.2718C36.1376 3.35951 36.0312 3.25277 36.0312 3.11794V1.96063C36.0312 1.8258 36.1376 1.71906 36.2718 1.71906H37.4132C37.5475 1.71906 37.6538 1.61232 37.6538 1.47749V0.325802C37.6538 0.19097 37.7601 0.0842285 37.8944 0.0842285H38.8343C38.9686 0.0842285 39.1812 0.0842285 39.3155 0.0842285H40.4681ZM48.2787 18.0898C48.1444 18.0898 48.0381 17.9831 48.0381 17.8483V16.7022C48.0381 16.5674 48.1444 16.4606 48.2787 16.4606H49.4312C49.5655 16.4606 49.6718 16.3539 49.6718 16.2191V3.60108C49.6718 3.46625 49.5655 3.35951 49.4312 3.35951H48.2787C48.1444 3.35951 48.0381 3.25277 48.0381 3.11794V1.96063C48.0381 1.8258 47.9318 1.71906 47.7975 1.71906H42.5774C42.4431 1.71906 42.3368 1.61232 42.3368 1.47749V0.325802C42.3368 0.19097 42.4431 0.0842285 42.5774 0.0842285H49.4312C49.5655 0.0842285 49.6718 0.19097 49.6718 0.325802V1.4831C49.6718 1.61794 49.7781 1.72468 49.9124 1.72468H51.065C51.1993 1.72468 51.3056 1.83142 51.3056 1.96625V3.12355C51.3056 3.25839 51.4119 3.36513 51.5461 3.36513H52.4861C52.6204 3.36513 52.7267 3.47187 52.7267 3.6067V16.2247C52.7267 16.3595 52.833 16.4663 52.9673 16.4663H54.1198C54.2541 16.4663 54.3604 16.573 54.3604 16.7078V17.8539C54.3604 17.9887 54.2541 18.0955 54.1198 18.0955H48.2843L48.2787 18.0898Z" fill="#FAD8D1"/>
<path d="M54.1195 18.1798H48.2839C48.1049 18.1798 47.9594 18.0337 47.9594 17.8539V16.7079C47.9594 16.5281 48.1049 16.382 48.2839 16.382H49.4365C49.5204 16.382 49.5932 16.3146 49.5932 16.2247V3.60112C49.5932 3.51685 49.526 3.44382 49.4365 3.44382H48.2839C48.1049 3.44382 47.9594 3.29775 47.9594 3.11798V1.96067C47.9594 1.8764 47.8923 1.80337 47.8028 1.80337H42.5827C42.4036 1.80337 42.2581 1.6573 42.2581 1.47753V0.325843C42.2581 0.146067 42.4036 0 42.5827 0H49.4365C49.6156 0 49.761 0.146067 49.761 0.325843V1.48315C49.761 1.56742 49.8282 1.64045 49.9177 1.64045H51.0702C51.2493 1.64045 51.3948 1.78652 51.3948 1.96629V3.1236C51.3948 3.20786 51.4619 3.2809 51.5514 3.2809H52.4914C52.6704 3.2809 52.8159 3.42697 52.8159 3.60674V16.2247C52.8159 16.309 52.883 16.382 52.9725 16.382H54.1251C54.3041 16.382 54.4496 16.5281 54.4496 16.7079V17.8539C54.4496 18.0337 54.3041 18.1798 54.1251 18.1798H54.1195ZM48.2783 16.5506C48.1944 16.5506 48.1217 16.618 48.1217 16.7079V17.8539C48.1217 17.9382 48.1888 18.0112 48.2783 18.0112H54.1139C54.1978 18.0112 54.2706 17.9438 54.2706 17.8539V16.7079C54.2706 16.6236 54.2034 16.5506 54.1139 16.5506H52.9614C52.7823 16.5506 52.6368 16.4045 52.6368 16.2247V3.60112C52.6368 3.51685 52.5697 3.44382 52.4802 3.44382H51.5402C51.3612 3.44382 51.2157 3.29775 51.2157 3.11798V1.96067C51.2157 1.8764 51.1486 1.80337 51.0591 1.80337H49.9065C49.7274 1.80337 49.582 1.6573 49.582 1.47753V0.325843C49.582 0.241573 49.5148 0.168539 49.4253 0.168539H42.5715C42.4875 0.168539 42.4148 0.235955 42.4148 0.325843V1.48315C42.4148 1.56742 42.4819 1.64045 42.5715 1.64045H47.7916C47.9706 1.64045 48.1161 1.78652 48.1161 1.96629V3.1236C48.1161 3.20786 48.1832 3.2809 48.2728 3.2809H49.4253C49.6044 3.2809 49.7498 3.42697 49.7498 3.60674V16.2247C49.7498 16.4045 49.6044 16.5506 49.4253 16.5506H48.2728H48.2783ZM42.0959 18.1798H36.2659C36.0869 18.1798 35.9414 18.0337 35.9414 17.8539V16.7079C35.9414 16.5281 36.0869 16.382 36.2659 16.382H37.4073C37.4912 16.382 37.564 16.3146 37.564 16.2247V3.60112C37.564 3.51685 37.4968 3.44382 37.4073 3.44382H36.2659C36.0869 3.44382 35.9414 3.29775 35.9414 3.11798V1.96067C35.9414 1.7809 36.0869 1.63483 36.2659 1.63483H37.4073C37.4912 1.63483 37.564 1.56742 37.564 1.47753V0.325843C37.564 0.146067 37.7094 0 37.8885 0H40.4622C40.6412 0 40.7867 0.146067 40.7867 0.325843V1.48315C40.7867 1.56742 40.8538 1.64045 40.9433 1.64045H42.0959C42.2749 1.64045 42.4204 1.78652 42.4204 1.96629V3.1236C42.4204 3.30337 42.2749 3.44944 42.0959 3.44944H40.9433C40.8594 3.44944 40.7867 3.51685 40.7867 3.60674V16.2247C40.7867 16.309 40.8538 16.382 40.9433 16.382H42.0959C42.2749 16.382 42.4204 16.5281 42.4204 16.7079V17.8539C42.4204 18.0337 42.2749 18.1798 42.0959 18.1798ZM36.2715 16.5506C36.1876 16.5506 36.1149 16.618 36.1149 16.7079V17.8539C36.1149 17.9382 36.182 18.0112 36.2715 18.0112H42.1015C42.1854 18.0112 42.2581 17.9438 42.2581 17.8539V16.7079C42.2581 16.6236 42.191 16.5506 42.1015 16.5506H40.9489C40.7699 16.5506 40.6244 16.4045 40.6244 16.2247V3.60112C40.6244 3.42135 40.7699 3.27528 40.9489 3.27528H42.1015C42.1854 3.27528 42.2581 3.20787 42.2581 3.11798V1.96067C42.2581 1.8764 42.191 1.80337 42.1015 1.80337H40.9489C40.7699 1.80337 40.6244 1.6573 40.6244 1.47753V0.325843C40.6244 0.241573 40.5573 0.168539 40.4678 0.168539H37.8941C37.8101 0.168539 37.7374 0.241573 37.7374 0.325843V1.48315C37.7374 1.66292 37.5919 1.80899 37.4129 1.80899H36.2715C36.1876 1.80899 36.1149 1.8764 36.1149 1.96629V3.1236C36.1149 3.20786 36.182 3.2809 36.2715 3.2809H37.4129C37.5919 3.2809 37.7374 3.42697 37.7374 3.60674V16.2247C37.7374 16.4045 37.5919 16.5506 37.4129 16.5506H36.2715Z" fill="#FAD8D1"/>
<path d="M94.0247 0.0842285C94.159 0.0842285 94.2653 0.19097 94.2653 0.325802V1.4831C94.2653 1.61794 94.3716 1.72468 94.5059 1.72468H95.6585C95.7927 1.72468 95.899 1.83142 95.899 1.96625V3.12355C95.899 3.25839 95.7927 3.36513 95.6585 3.36513H94.5059C94.3716 3.36513 94.2653 3.47187 94.2653 3.6067V16.2247C94.2653 16.3595 94.3716 16.4663 94.5059 16.4663H95.6585C95.7927 16.4663 95.899 16.573 95.899 16.7078V17.8539C95.899 17.9887 95.7927 18.0955 95.6585 18.0955H89.8285C89.6942 18.0955 89.5879 17.9887 89.5879 17.8539V16.7078C89.5879 16.573 89.6942 16.4663 89.8285 16.4663H90.9699C91.1041 16.4663 91.2104 16.3595 91.2104 16.2247V3.60108C91.2104 3.46625 91.1041 3.35951 90.9699 3.35951H89.8285C89.6942 3.35951 89.5879 3.25277 89.5879 3.11794V1.96063C89.5879 1.8258 89.6942 1.71906 89.8285 1.71906H90.9699C91.1041 1.71906 91.2104 1.61232 91.2104 1.47749V0.325802C91.2104 0.19097 91.3167 0.0842285 91.451 0.0842285H92.391C92.5253 0.0842285 92.7379 0.0842285 92.8722 0.0842285H94.0247ZM101.841 18.0898C101.707 18.0898 101.6 17.9831 101.6 17.8483V16.7022C101.6 16.5674 101.707 16.4606 101.841 16.4606H102.993C103.128 16.4606 103.234 16.3539 103.234 16.2191V3.60108C103.234 3.46625 103.128 3.35951 102.993 3.35951H101.841C101.707 3.35951 101.6 3.25277 101.6 3.11794V1.96063C101.6 1.8258 101.494 1.71906 101.36 1.71906H96.1396C96.0053 1.71906 95.899 1.61232 95.899 1.47749V0.325802C95.899 0.19097 96.0053 0.0842285 96.1396 0.0842285H102.993C103.128 0.0842285 103.234 0.19097 103.234 0.325802V1.4831C103.234 1.61794 103.34 1.72468 103.475 1.72468H104.627C104.761 1.72468 104.868 1.83142 104.868 1.96625V3.12355C104.868 3.25839 104.974 3.36513 105.108 3.36513H106.048C106.183 3.36513 106.289 3.47187 106.289 3.6067V16.2247C106.289 16.3595 106.395 16.4663 106.53 16.4663H107.682C107.816 16.4663 107.923 16.573 107.923 16.7078V17.8539C107.923 17.9887 107.816 18.0955 107.682 18.0955H101.847L101.841 18.0898Z" fill="#FAD8D1"/>
<path d="M107.676 18.1798H101.841C101.662 18.1798 101.516 18.0337 101.516 17.8539V16.7079C101.516 16.5281 101.662 16.382 101.841 16.382H102.993C103.077 16.382 103.15 16.3146 103.15 16.2247V3.60112C103.15 3.51685 103.083 3.44382 102.993 3.44382H101.841C101.662 3.44382 101.516 3.29775 101.516 3.11798V1.96067C101.516 1.8764 101.449 1.80337 101.36 1.80337H96.1396C95.9605 1.80337 95.815 1.6573 95.815 1.47753V0.325843C95.815 0.146067 95.9605 0 96.1396 0H102.993C103.172 0 103.318 0.146067 103.318 0.325843V1.48315C103.318 1.56742 103.385 1.64045 103.475 1.64045H104.627C104.806 1.64045 104.952 1.78652 104.952 1.96629V3.1236C104.952 3.20786 105.019 3.2809 105.108 3.2809H106.048C106.227 3.2809 106.373 3.42697 106.373 3.60674V16.2247C106.373 16.309 106.44 16.382 106.529 16.382H107.682C107.861 16.382 108.007 16.5281 108.007 16.7079V17.8539C108.007 18.0337 107.861 18.1798 107.682 18.1798H107.676ZM101.841 16.5506C101.757 16.5506 101.684 16.618 101.684 16.7079V17.8539C101.684 17.9382 101.751 18.0112 101.841 18.0112H107.676C107.76 18.0112 107.833 17.9438 107.833 17.8539V16.7079C107.833 16.6236 107.766 16.5506 107.676 16.5506H106.524C106.345 16.5506 106.199 16.4045 106.199 16.2247V3.60112C106.199 3.51685 106.132 3.44382 106.043 3.44382H105.103C104.924 3.44382 104.778 3.29775 104.778 3.11798V1.96067C104.778 1.8764 104.711 1.80337 104.622 1.80337H103.469C103.29 1.80337 103.144 1.6573 103.144 1.47753V0.325843C103.144 0.241573 103.077 0.168539 102.988 0.168539H96.134C96.05 0.168539 95.9773 0.235955 95.9773 0.325843V1.48315C95.9773 1.56742 96.0444 1.64045 96.134 1.64045H101.354C101.533 1.64045 101.679 1.78652 101.679 1.96629V3.1236C101.679 3.20786 101.746 3.2809 101.835 3.2809H102.988C103.167 3.2809 103.312 3.42697 103.312 3.60674V16.2247C103.312 16.4045 103.167 16.5506 102.988 16.5506H101.835H101.841ZM95.6584 18.1798H89.8284C89.6494 18.1798 89.5039 18.0337 89.5039 17.8539V16.7079C89.5039 16.5281 89.6494 16.382 89.8284 16.382H90.9698C91.0537 16.382 91.1264 16.3146 91.1264 16.2247V3.60112C91.1264 3.51685 91.0593 3.44382 90.9698 3.44382H89.8284C89.6494 3.44382 89.5039 3.29775 89.5039 3.11798V1.96067C89.5039 1.7809 89.6494 1.63483 89.8284 1.63483H90.9698C91.0537 1.63483 91.1264 1.56742 91.1264 1.47753V0.325843C91.1264 0.146067 91.2719 0 91.451 0H94.0247C94.2037 0 94.3492 0.146067 94.3492 0.325843V1.48315C94.3492 1.56742 94.4163 1.64045 94.5058 1.64045H95.6584C95.8374 1.64045 95.9829 1.78652 95.9829 1.96629V3.1236C95.9829 3.30337 95.8374 3.44944 95.6584 3.44944H94.5058C94.4219 3.44944 94.3492 3.51685 94.3492 3.60674V16.2247C94.3492 16.309 94.4163 16.382 94.5058 16.382H95.6584C95.8374 16.382 95.9829 16.5281 95.9829 16.7079V17.8539C95.9829 18.0337 95.8374 18.1798 95.6584 18.1798ZM89.8284 16.5506C89.7445 16.5506 89.6718 16.618 89.6718 16.7079V17.8539C89.6718 17.9382 89.7389 18.0112 89.8284 18.0112H95.6584C95.7423 18.0112 95.815 17.9438 95.815 17.8539V16.7079C95.815 16.6236 95.7479 16.5506 95.6584 16.5506H94.5058C94.3268 16.5506 94.1813 16.4045 94.1813 16.2247V3.60112C94.1813 3.42135 94.3268 3.27528 94.5058 3.27528H95.6584C95.7423 3.27528 95.815 3.20787 95.815 3.11798V1.96067C95.815 1.8764 95.7479 1.80337 95.6584 1.80337H94.5058C94.3268 1.80337 94.1813 1.6573 94.1813 1.47753V0.325843C94.1813 0.241573 94.1142 0.168539 94.0247 0.168539H91.451C91.367 0.168539 91.2943 0.241573 91.2943 0.325843V1.48315C91.2943 1.66292 91.1488 1.80899 90.9698 1.80899H89.8284C89.7445 1.80899 89.6718 1.8764 89.6718 1.96629V3.1236C89.6718 3.20786 89.7389 3.2809 89.8284 3.2809H90.9698C91.1488 3.2809 91.2943 3.42697 91.2943 3.60674V16.2247C91.2943 16.4045 91.1488 16.5506 90.9698 16.5506H89.8284Z" fill="#FAD8D1"/>
<path d="M58.3004 18.0898C58.1661 18.0898 58.0598 17.9831 58.0598 17.8483V16.7022C58.0598 16.5674 57.9535 16.4606 57.8192 16.4606H56.6778C56.5435 16.4606 56.4372 16.3539 56.4372 16.2191V12.6011C56.4372 12.4663 56.5435 12.3595 56.6778 12.3595H57.8192C57.9535 12.3595 58.0598 12.4663 58.0598 12.6011V14.5786C58.0598 14.7134 58.1661 14.8202 58.3004 14.8202H59.4529C59.5872 14.8202 59.6935 14.9269 59.6935 15.0618V16.2191C59.6935 16.3539 59.7998 16.4606 59.9341 16.4606H64.3485C64.4828 16.4606 64.5891 16.3539 64.5891 16.2191V15.0618C64.5891 14.9269 64.6954 14.8202 64.8297 14.8202H65.9823C66.1166 14.8202 66.2229 14.7134 66.2229 14.5786V11.7809C66.2229 11.646 66.1166 11.5393 65.9823 11.5393H64.8297C64.6954 11.5393 64.5891 11.4325 64.5891 11.2977V10.1404C64.5891 10.0056 64.4828 9.89884 64.3485 9.89884H61.5622C61.428 9.89884 61.3217 9.79209 61.3217 9.65726V8.49996C61.3217 8.36513 61.2154 8.25839 61.0811 8.25839H58.2948C58.1605 8.25839 58.0542 8.15164 58.0542 8.01681V6.87075C58.0542 6.73591 57.9479 6.62917 57.8136 6.62917H56.6722C56.5379 6.62917 56.4316 6.52243 56.4316 6.3876V3.58985C56.4316 3.45501 56.5379 3.34827 56.6722 3.34827H57.8136C57.9479 3.34827 58.0542 3.24153 58.0542 3.1067V1.9494C58.0542 1.81457 58.1605 1.70782 58.2948 1.70782H59.4473C59.5816 1.70782 59.6879 1.81457 59.6879 1.9494V4.74715C59.6879 4.88198 59.7942 4.98872 59.9285 4.98872H61.0811C61.2154 4.98872 61.3217 5.09546 61.3217 5.2303V6.3876C61.3217 6.52243 61.428 6.62917 61.5622 6.62917H64.3485C64.4828 6.62917 64.5891 6.73591 64.5891 6.87075V8.01681C64.5891 8.15164 64.6954 8.25839 64.8297 8.25839H67.6048C67.7391 8.25839 67.8454 8.36513 67.8454 8.49996V9.65726C67.8454 9.79209 67.9517 9.89884 68.086 9.89884H69.2386C69.3728 9.89884 69.4791 10.0056 69.4791 10.1404V14.573C69.4791 14.7078 69.3728 14.8146 69.2386 14.8146H68.086C67.9517 14.8146 67.8454 14.9213 67.8454 15.0561V16.2134C67.8454 16.3483 67.7391 16.455 67.6048 16.455H66.4634C66.3292 16.455 66.2229 16.5618 66.2229 16.6966V17.8427C66.2229 17.9775 66.1166 18.0842 65.9823 18.0842H58.3004V18.0898ZM67.2691 4.99996C67.1348 4.99996 67.0285 4.89322 67.0285 4.75839V3.60108C67.0285 3.46625 66.9222 3.35951 66.788 3.35951H65.6466C65.5123 3.35951 65.406 3.25277 65.406 3.11794V1.96063C65.406 1.8258 65.2997 1.71906 65.1654 1.71906H59.9341C59.7998 1.71906 59.6935 1.61232 59.6935 1.47749V0.325802C59.6935 0.19097 59.7998 0.0842285 59.9341 0.0842285H66.788C66.9222 0.0842285 67.0285 0.19097 67.0285 0.325802V1.4831C67.0285 1.61794 67.1348 1.72468 67.2691 1.72468H68.4217C68.556 1.72468 68.6623 1.83142 68.6623 1.96625V4.764C68.6623 4.89884 68.556 5.00558 68.4217 5.00558H67.2691V4.99996Z" fill="#FAD8D1"/>
<path d="M65.9822 18.1798H58.3003C58.1213 18.1798 57.9758 18.0337 57.9758 17.8539V16.7079C57.9758 16.6236 57.9087 16.5506 57.8191 16.5506H56.6778C56.4987 16.5506 56.3533 16.4045 56.3533 16.2247V12.6067C56.3533 12.427 56.4987 12.2809 56.6778 12.2809H57.8191C57.9982 12.2809 58.1436 12.427 58.1436 12.6067V14.5843C58.1436 14.6685 58.2108 14.7416 58.3003 14.7416H59.4529C59.6319 14.7416 59.7774 14.8876 59.7774 15.0674V16.2247C59.7774 16.309 59.8445 16.382 59.934 16.382H64.3485C64.4324 16.382 64.5051 16.3146 64.5051 16.2247V15.0674C64.5051 14.8876 64.6506 14.7416 64.8297 14.7416H65.9822C66.0661 14.7416 66.1389 14.6742 66.1389 14.5843V11.7865C66.1389 11.7022 66.0717 11.6292 65.9822 11.6292H64.8297C64.6506 11.6292 64.5051 11.4831 64.5051 11.3034V10.1461C64.5051 10.0618 64.438 9.98876 64.3485 9.98876H61.5622C61.3831 9.98876 61.2377 9.8427 61.2377 9.66292V8.50562C61.2377 8.42135 61.1705 8.34831 61.081 8.34831H58.2947C58.1157 8.34831 57.9702 8.20225 57.9702 8.02247V6.8764C57.9702 6.79213 57.9031 6.7191 57.8135 6.7191H56.6722C56.4931 6.7191 56.3477 6.57303 56.3477 6.39326V3.59551C56.3477 3.41573 56.4931 3.26966 56.6722 3.26966H57.8135C57.8975 3.26966 57.9702 3.20225 57.9702 3.11236V1.95506C57.9702 1.77528 58.1157 1.62921 58.2947 1.62921H59.4473C59.6263 1.62921 59.7718 1.77528 59.7718 1.95506V4.75281C59.7718 4.83708 59.8389 4.91011 59.9284 4.91011H61.081C61.2601 4.91011 61.4055 5.05618 61.4055 5.23595V6.39326C61.4055 6.47753 61.4727 6.55056 61.5622 6.55056H64.3485C64.5275 6.55056 64.673 6.69663 64.673 6.8764V8.02247C64.673 8.10674 64.7401 8.17978 64.8297 8.17978H67.6048C67.7838 8.17978 67.9293 8.32584 67.9293 8.50562V9.66292C67.9293 9.74719 67.9964 9.82022 68.0859 9.82022H69.2385C69.4175 9.82022 69.563 9.96629 69.563 10.1461V14.5787C69.563 14.7584 69.4175 14.9045 69.2385 14.9045H68.0859C68.002 14.9045 67.9293 14.9719 67.9293 15.0618V16.2191C67.9293 16.3989 67.7838 16.5449 67.6048 16.5449H66.4634C66.3795 16.5449 66.3067 16.6124 66.3067 16.7022V17.8483C66.3067 18.0281 66.1613 18.1742 65.9822 18.1742V18.1798ZM56.6778 12.4494C56.5938 12.4494 56.5211 12.5169 56.5211 12.6067V16.2247C56.5211 16.309 56.5882 16.382 56.6778 16.382H57.8191C57.9982 16.382 58.1436 16.5281 58.1436 16.7079V17.8539C58.1436 17.9382 58.2108 18.0112 58.3003 18.0112H65.9822C66.0661 18.0112 66.1389 17.9438 66.1389 17.8539V16.7079C66.1389 16.5281 66.2844 16.382 66.4634 16.382H67.6048C67.6887 16.382 67.7614 16.3146 67.7614 16.2247V15.0674C67.7614 14.8876 67.9069 14.7416 68.0859 14.7416H69.2385C69.3224 14.7416 69.3952 14.6742 69.3952 14.5843V10.1517C69.3952 10.0674 69.328 9.99438 69.2385 9.99438H68.0859C67.9069 9.99438 67.7614 9.84831 67.7614 9.66854V8.51124C67.7614 8.42697 67.6943 8.35393 67.6048 8.35393H64.8297C64.6506 8.35393 64.5051 8.20786 64.5051 8.02809V6.88202C64.5051 6.79775 64.438 6.72472 64.3485 6.72472H61.5622C61.3831 6.72472 61.2377 6.57865 61.2377 6.39888V5.24157C61.2377 5.1573 61.1705 5.08427 61.081 5.08427H59.9284C59.7494 5.08427 59.6039 4.9382 59.6039 4.75843V1.96629C59.6039 1.88202 59.5368 1.80899 59.4473 1.80899H58.2947C58.2108 1.80899 58.1381 1.8764 58.1381 1.96629V3.1236C58.1381 3.30337 57.9926 3.44944 57.8135 3.44944H56.6722C56.5882 3.44944 56.5155 3.51685 56.5155 3.60674V6.40449C56.5155 6.48876 56.5826 6.5618 56.6722 6.5618H57.8135C57.9926 6.5618 58.1381 6.70787 58.1381 6.88764V8.03371C58.1381 8.11798 58.2052 8.19101 58.2947 8.19101H61.081C61.2601 8.19101 61.4055 8.33708 61.4055 8.51685V9.67416C61.4055 9.75843 61.4727 9.83146 61.5622 9.83146H64.3485C64.5275 9.83146 64.673 9.97753 64.673 10.1573V11.3146C64.673 11.3989 64.7401 11.4719 64.8297 11.4719H65.9822C66.1613 11.4719 66.3067 11.618 66.3067 11.7978V14.5955C66.3067 14.7753 66.1613 14.9213 65.9822 14.9213H64.8297C64.7457 14.9213 64.673 14.9888 64.673 15.0787V16.236C64.673 16.4157 64.5275 16.5618 64.3485 16.5618H59.934C59.755 16.5618 59.6095 16.4157 59.6095 16.236V15.0787C59.6095 14.9944 59.5424 14.9213 59.4529 14.9213H58.3003C58.1213 14.9213 57.9758 14.7753 57.9758 14.5955V12.618C57.9758 12.5337 57.9087 12.4607 57.8191 12.4607H56.6778V12.4494ZM68.4216 5.08427H67.2691C67.09 5.08427 66.9446 4.9382 66.9446 4.75843V3.60112C66.9446 3.51685 66.8774 3.44382 66.7879 3.44382H65.6465C65.4675 3.44382 65.322 3.29775 65.322 3.11798V1.96067C65.322 1.8764 65.2549 1.80337 65.1654 1.80337H59.934C59.755 1.80337 59.6095 1.6573 59.6095 1.47753V0.325843C59.6095 0.146067 59.755 0 59.934 0H66.7879C66.9669 0 67.1124 0.146067 67.1124 0.325843V1.48315C67.1124 1.56742 67.1796 1.64045 67.2691 1.64045H68.4216C68.6007 1.64045 68.7461 1.78652 68.7461 1.96629V4.76404C68.7461 4.94382 68.6007 5.08989 68.4216 5.08989V5.08427ZM59.934 0.168539C59.8501 0.168539 59.7774 0.235955 59.7774 0.325843V1.48315C59.7774 1.56742 59.8445 1.64045 59.934 1.64045H65.1654C65.3444 1.64045 65.4899 1.78652 65.4899 1.96629V3.1236C65.4899 3.20786 65.557 3.2809 65.6465 3.2809H66.7879C66.9669 3.2809 67.1124 3.42697 67.1124 3.60674V4.76404C67.1124 4.84831 67.1796 4.92135 67.2691 4.92135H68.4216C68.5056 4.92135 68.5783 4.85393 68.5783 4.76404V1.96629C68.5783 1.88202 68.5112 1.80899 68.4216 1.80899H67.2691C67.09 1.80899 66.9446 1.66292 66.9446 1.48315V0.325843C66.9446 0.241573 66.8774 0.168539 66.7879 0.168539H59.934Z" fill="#FAD8D1"/>
<path d="M77.6236 21.1236V14.2359C77.6236 14.1067 77.5173 14 77.3886 14H76.2248C76.0961 14 75.9898 13.8932 75.9898 13.764V10.1348C75.9898 10.0056 75.8835 9.89884 75.7548 9.89884H74.5855C74.4568 9.89884 74.3505 9.79209 74.3505 9.66288V6.0449C74.3505 5.91569 74.2442 5.80895 74.1155 5.80895H72.9573C72.8287 5.80895 72.7223 5.70221 72.7223 5.57299V1.95501C72.7223 1.8258 72.616 1.71906 72.4874 1.71906H70.5123C70.3836 1.71906 70.2773 1.61232 70.2773 1.4831V0.320184C70.2773 0.19097 70.3836 0.0842285 70.5123 0.0842285H78.1887C78.3173 0.0842285 78.4236 0.19097 78.4236 0.320184V1.49434C78.4236 1.62355 78.3173 1.7303 78.1887 1.7303H76.208C76.0793 1.7303 75.973 1.83704 75.973 1.96625V5.59546C75.973 5.72468 76.0793 5.83142 76.208 5.83142H77.3718C77.5005 5.83142 77.6068 5.93816 77.6068 6.06737V9.68535C77.6068 9.81457 77.7131 9.92131 77.8418 9.92131H79.0111C79.1398 9.92131 79.2461 10.028 79.2461 10.1573V13.7865C79.2461 13.9157 79.3524 14.0224 79.4811 14.0224H80.6449C80.7735 14.0224 80.8798 14.1292 80.8798 14.2584V17.8764C80.8798 18.0056 80.7735 18.1123 80.6449 18.1123H79.4811C79.3524 18.1123 79.2461 18.2191 79.2461 18.3483V21.146C79.2461 21.2752 79.1398 21.382 79.0111 21.382H77.8418C77.7131 21.382 77.6068 21.2752 77.6068 21.146L77.6236 21.1236ZM70.4788 27.6797V24.8707C70.4788 24.7415 70.5851 24.6348 70.7138 24.6348H75.7604C75.8891 24.6348 75.9954 24.7415 75.9954 24.8707V26.0449C75.9954 26.1741 75.8891 26.2809 75.7604 26.2809H74.5911C74.4624 26.2809 74.3561 26.3876 74.3561 26.5168V27.691C74.3561 27.8202 74.2498 27.9269 74.1211 27.9269H70.7082C70.5795 27.9269 70.4732 27.8202 70.4732 27.691L70.4788 27.6797ZM75.9898 24.4045V21.5955C75.9898 21.4662 76.0961 21.3595 76.2248 21.3595H77.3886C77.5173 21.3595 77.6236 21.4662 77.6236 21.5955V24.4045C77.6236 24.5337 77.5173 24.6404 77.3886 24.6404H76.2248C76.0961 24.6404 75.9898 24.5337 75.9898 24.4045ZM80.8854 13.7696V10.1404C80.8854 10.0112 80.9917 9.90445 81.1204 9.90445H82.2898C82.4185 9.90445 82.5248 10.0112 82.5248 10.1404V13.7696C82.5248 13.8988 82.4185 14.0056 82.2898 14.0056H81.1204C80.9917 14.0056 80.8854 13.8988 80.8854 13.7696ZM84.1417 5.58985V1.95501C84.1417 1.8258 84.0354 1.71906 83.9067 1.71906H81.9317C81.803 1.71906 81.6967 1.61232 81.6967 1.4831V0.320184C81.6967 0.19097 81.803 0.0842285 81.9317 0.0842285H87.9855C88.1142 0.0842285 88.2205 0.19097 88.2205 0.320184V1.49434C88.2205 1.62355 88.1142 1.7303 87.9855 1.7303H86.0048C85.8762 1.7303 85.7699 1.83704 85.7699 1.96625V5.59546C85.7699 5.72468 85.6636 5.83142 85.5349 5.83142H84.3655C84.2368 5.83142 84.1305 5.72468 84.1305 5.59546L84.1417 5.58985ZM82.5192 9.67412V6.05614C82.5192 5.92693 82.6255 5.82018 82.7542 5.82018H83.9123C84.041 5.82018 84.1473 5.92693 84.1473 6.05614V9.67412C84.1473 9.80333 84.041 9.91007 83.9123 9.91007H82.7542C82.6255 9.91007 82.5192 9.80333 82.5192 9.67412Z" fill="#FAD8D1"/>
<path d="M74.1274 28H70.7145C70.541 28 70.3956 27.8596 70.3956 27.6798V24.8708C70.3956 24.6966 70.5354 24.5506 70.7145 24.5506H75.7612C75.9346 24.5506 76.0801 24.691 76.0801 24.8708V26.0449C76.0801 26.2191 75.9402 26.3652 75.7612 26.3652H74.5918C74.5079 26.3652 74.4463 26.4326 74.4463 26.5112V27.6854C74.4463 27.8595 74.3065 28.0056 74.1274 28.0056V28ZM70.7145 24.7247C70.6306 24.7247 70.569 24.7921 70.569 24.8708V27.6798C70.569 27.764 70.6362 27.8258 70.7145 27.8258H74.1274C74.2114 27.8258 74.2729 27.7584 74.2729 27.6798V26.5056C74.2729 26.3315 74.4128 26.1854 74.5918 26.1854H75.7612C75.8451 26.1854 75.9066 26.118 75.9066 26.0393V24.8652C75.9066 24.7809 75.8395 24.7191 75.7612 24.7191H70.7145V24.7247ZM77.3893 24.7247H76.2256C76.0521 24.7247 75.9066 24.5843 75.9066 24.4045V21.5955C75.9066 21.4213 76.0465 21.2753 76.2256 21.2753H77.3893C77.5628 21.2753 77.7082 21.4157 77.7082 21.5955V24.4045C77.7082 24.5786 77.5683 24.7247 77.3893 24.7247ZM76.2256 21.4438C76.1416 21.4438 76.0801 21.5112 76.0801 21.5899V24.3989C76.0801 24.4831 76.1472 24.5449 76.2256 24.5449H77.3893C77.4732 24.5449 77.5348 24.4775 77.5348 24.3989V21.5899C77.5348 21.5056 77.4676 21.4438 77.3893 21.4438H76.2256ZM79.023 21.4438H77.8537C77.6802 21.4438 77.5348 21.3034 77.5348 21.1236V14.236C77.5348 14.1517 77.4676 14.0899 77.3893 14.0899H76.2256C76.0521 14.0899 75.9066 13.9494 75.9066 13.7697V10.1404C75.9066 10.0562 75.8395 9.99438 75.7612 9.99438H74.5918C74.4184 9.99438 74.2729 9.85393 74.2729 9.67416V6.05618C74.2729 5.97191 74.2058 5.91011 74.1274 5.91011H72.9693C72.7958 5.91011 72.6504 5.76966 72.6504 5.58989V1.95506C72.6504 1.87079 72.5832 1.80899 72.5049 1.80899H70.5299C70.3564 1.80899 70.2109 1.66854 70.2109 1.48876V0.320225C70.2109 0.146067 70.3508 0 70.5299 0H78.2062C78.3796 0 78.5251 0.140449 78.5251 0.320225V1.49438C78.5251 1.66854 78.3852 1.81461 78.2062 1.81461H76.2256C76.1416 1.81461 76.0801 1.88202 76.0801 1.96067V5.58989C76.0801 5.67416 76.1472 5.73595 76.2256 5.73595H77.3893C77.5628 5.73595 77.7082 5.8764 77.7082 6.05618V9.67416C77.7082 9.75843 77.7754 9.82022 77.8537 9.82022H79.023C79.1965 9.82022 79.342 9.96067 79.342 10.1404V13.7697C79.342 13.8539 79.4091 13.9157 79.4874 13.9157H80.6512C80.8246 13.9157 80.9701 14.0562 80.9701 14.236V17.8539C80.9701 18.0281 80.8302 18.1742 80.6512 18.1742H79.4874C79.4035 18.1742 79.342 18.2416 79.342 18.3202V21.1236C79.342 21.2978 79.2021 21.4438 79.023 21.4438ZM70.5299 0.168539C70.4459 0.168539 70.3844 0.235955 70.3844 0.314607V1.48876C70.3844 1.57303 70.4515 1.63483 70.5299 1.63483H72.5049C72.6783 1.63483 72.8238 1.77528 72.8238 1.95506V5.58427C72.8238 5.66854 72.8909 5.73034 72.9693 5.73034H74.1274C74.3009 5.73034 74.4463 5.87079 74.4463 6.05056V9.66854C74.4463 9.75281 74.5135 9.81461 74.5918 9.81461H75.7612C75.9346 9.81461 76.0801 9.95506 76.0801 10.1348V13.764C76.0801 13.8483 76.1472 13.9101 76.2256 13.9101H77.3893C77.5628 13.9101 77.7082 14.0506 77.7082 14.2303V21.118C77.7082 21.2022 77.7754 21.264 77.8537 21.264H79.023C79.107 21.264 79.1685 21.1966 79.1685 21.118V18.3146C79.1685 18.1404 79.3084 17.9944 79.4874 17.9944H80.6512C80.7351 17.9944 80.7967 17.927 80.7967 17.8483V14.2303C80.7967 14.1461 80.7295 14.0843 80.6512 14.0843H79.4874C79.314 14.0843 79.1685 13.9438 79.1685 13.764V10.1348C79.1685 10.0506 79.1014 9.98876 79.023 9.98876H77.8537C77.6802 9.98876 77.5348 9.84831 77.5348 9.66854V6.05056C77.5348 5.96629 77.4676 5.90449 77.3893 5.90449H76.2256C76.0521 5.90449 75.9066 5.76404 75.9066 5.58427V1.95506C75.9066 1.7809 76.0465 1.63483 76.2256 1.63483H78.2062C78.2901 1.63483 78.3516 1.56742 78.3516 1.48876V0.320225C78.3516 0.235955 78.2845 0.174157 78.2062 0.174157H70.5299V0.168539ZM82.2849 14.0899H81.1156C80.9421 14.0899 80.7967 13.9494 80.7967 13.7697V10.1404C80.7967 9.96629 80.9365 9.82022 81.1156 9.82022H82.2849C82.4584 9.82022 82.6038 9.96067 82.6038 10.1404V13.7697C82.6038 13.9438 82.464 14.0899 82.2849 14.0899ZM81.1212 9.99438C81.0372 9.99438 80.9757 10.0618 80.9757 10.1404V13.7697C80.9757 13.8539 81.0428 13.9157 81.1212 13.9157H82.2905C82.3744 13.9157 82.436 13.8483 82.436 13.7697V10.1404C82.436 10.0562 82.3688 9.99438 82.2905 9.99438H81.1212ZM83.9075 9.99438H82.7493C82.5759 9.99438 82.4304 9.85393 82.4304 9.67416V6.05618C82.4304 5.88202 82.5703 5.73595 82.7493 5.73595H83.9075C84.0809 5.73595 84.2264 5.8764 84.2264 6.05618V9.67416C84.2264 9.84831 84.0865 9.99438 83.9075 9.99438ZM82.7493 5.90449C82.6654 5.90449 82.6038 5.97191 82.6038 6.05056V9.66854C82.6038 9.75281 82.671 9.81461 82.7493 9.81461H83.9075C83.9914 9.81461 84.0529 9.74719 84.0529 9.66854V6.05056C84.0529 5.96629 83.9858 5.90449 83.9075 5.90449H82.7493ZM85.5412 5.90449H84.3718C84.1984 5.90449 84.0529 5.76404 84.0529 5.58427V1.95506C84.0529 1.87079 83.9858 1.80899 83.9075 1.80899H81.9324C81.759 1.80899 81.6135 1.66854 81.6135 1.48876V0.320225C81.6135 0.146067 81.7534 0 81.9324 0H87.9862C88.1596 0 88.3051 0.140449 88.3051 0.320225V1.49438C88.3051 1.66854 88.1652 1.81461 87.9862 1.81461H86.0056C85.9217 1.81461 85.8601 1.88202 85.8601 1.96067V5.58989C85.8601 5.76404 85.7202 5.91011 85.5412 5.91011V5.90449ZM81.9324 0.168539C81.8485 0.168539 81.787 0.235955 81.787 0.314607V1.48876C81.787 1.57303 81.8541 1.63483 81.9324 1.63483H83.9075C84.0809 1.63483 84.2264 1.77528 84.2264 1.95506V5.58427C84.2264 5.66854 84.2935 5.73034 84.3718 5.73034H85.5412C85.6251 5.73034 85.6867 5.66292 85.6867 5.58427V1.95506C85.6867 1.7809 85.8265 1.63483 86.0056 1.63483H87.9862C88.0701 1.63483 88.1317 1.56742 88.1317 1.48876V0.320225C88.1317 0.235955 88.0645 0.174157 87.9862 0.174157H81.9324V0.168539Z" fill="#FAD8D1"/>
</g>
<defs>
<clipPath id="clip0_1697_341">
<rect width="108" height="28" fill="white"/>
</clipPath>
</defs>
</svg>
